# xmcd CD database file
#
# Track frame offsets:
#	150
#	2406
#	4358
#	5469
#	6692
#	8429
#	9415
#	11184
#	13679
#	15640
#	18103
#	20450
#	21735
#	23814
#	26739
#	27603
#	29255
#	31086
#	34195
#	35483
#	36918
#	38245
#	39429
#
# Disc length: 535 seconds
#
# Revision: 0
# Processed by: cddbd v1.5.1PL0 Copyright (c) Steve Scherf et al.
# Submitted via: CDex 1.51
#
DISCID=07021517
DTITLE=cfc - 23
DYEAR=2000
DGENRE=Rhythmic Soul
TTITLE0=blast beat, punk beat
TTITLE1=hi-hat thing
TTITLE2=scream beginning
TTITLE3=floor tom beginning
TTITLE4=ramones
TTITLE5=guttural beginning
TTITLE6=cfc anthem
TTITLE7=rock ballad
TTITLE8=trainspotting
TTITLE9=cymbals slow beat
TTITLE10=tap on mic, tap on ride
TTITLE11=shane's song
TTITLE12=bass drum tappy tap
TTITLE13=20 seconds noise
TTITLE14=stick song
TTITLE15=joke song
TTITLE16=solo song
TTITLE17=mickey's song, no blast
TTITLE18=scream, charlie mumma, scream
TTITLE19=arpeggio song
TTITLE20=charlie's song
TTITLE21=tearing out the nose ring of barney greenway
TTITLE22=last song
EXTD=YEAR: 2000
EXTT0=
EXTT1=
EXTT2=
EXTT3=
EXTT4=
EXTT5=
EXTT6=
EXTT7=
EXTT8=
EXTT9=
EXTT10=
EXTT11=
EXTT12=
EXTT13=
EXTT14=
EXTT15=
EXTT16=
EXTT17=
EXTT18=
EXTT19=
EXTT20=
EXTT21=
EXTT22=
PLAYORDER=
